HIERARCHY
ROOT root
{
	OFFSET 0.000000 0.000000 0.000000
	CHANNELS 6 Xposition Yposition Zposition Zrotation Yrotation Xrotation
	JOINT lhip
	{
		OFFSET 0.058581 -0.082280 -0.017664
		CHANNELS 3 Zrotation Yrotation Xrotation
		JOINT lknee
		{
			OFFSET 0.043451 -0.386469 0.008037
			CHANNELS 3 Zrotation Yrotation Xrotation
			JOINT lankle
			{
				OFFSET -0.014790 -0.426874 -0.037428
				CHANNELS 3 Zrotation Yrotation Xrotation
				JOINT ltoe
				{
					OFFSET 0.041054 -0.060286 0.122042
					CHANNELS 3 Zrotation Yrotation Xrotation
					End Site
					{
						OFFSET 0.000000 0.000000 0.000000
					}
				}
			}
		}
	}
	JOINT rhip
	{
		OFFSET -0.060310 -0.090513 -0.013543
		CHANNELS 3 Zrotation Yrotation Xrotation
		JOINT rknee
		{
			OFFSET -0.043257 -0.383688 -0.004843
			CHANNELS 3 Zrotation Yrotation Xrotation
			JOINT rankle
			{
				OFFSET 0.019056 -0.420046 -0.034562
				CHANNELS 3 Zrotation Yrotation Xrotation
				JOINT rtoe
				{
					OFFSET -0.034840 -0.062106 0.130323
					CHANNELS 3 Zrotation Yrotation Xrotation
					End Site
					{
						OFFSET 0.000000 0.000000 0.000000
					}
				}
			}
		}
	}
	JOINT lowerback
	{
		OFFSET 0.004439 0.124404 -0.038385
		CHANNELS 3 Zrotation Yrotation Xrotation
		JOINT upperback
		{
			OFFSET 0.004488 0.137956 0.026820
			CHANNELS 3 Zrotation Yrotation Xrotation
			JOINT chest
			{
				OFFSET -0.002265 0.056032 0.002855
				CHANNELS 3 Zrotation Yrotation Xrotation
				JOINT lowerneck
				{
					OFFSET -0.013390 0.211636 -0.033468
					CHANNELS 3 Zrotation Yrotation Xrotation
					JOINT upperneck
					{
						OFFSET 0.010113 0.088937 0.050410
						CHANNELS 3 Zrotation Yrotation Xrotation
						End Site
						{
							OFFSET 0.000000 0.000000 0.000000
						}
					}
				}
				JOINT lclavicle
				{
					OFFSET 0.071702 0.114000 -0.018898
					CHANNELS 3 Zrotation Yrotation Xrotation
					JOINT lshoulder
					{
						OFFSET 0.122921 0.045205 -0.019046
						CHANNELS 3 Zrotation Yrotation Xrotation
						JOINT lelbow
						{
							OFFSET 0.255332 -0.015649 -0.022946
							CHANNELS 3 Zrotation Yrotation Xrotation
							JOINT lwrist
							{
								OFFSET 0.265709 0.012698 -0.007375
								CHANNELS 3 Zrotation Yrotation Xrotation
								End Site
								{
									OFFSET 0.000000 0.000000 0.000000
								}
							}
						}
					}
				}
				JOINT rclavicle
				{
					OFFSET -0.082954 0.112472 -0.023707
					CHANNELS 3 Zrotation Yrotation Xrotation
					JOINT rshoulder
					{
						OFFSET -0.113228 0.046853 -0.008472
						CHANNELS 3 Zrotation Yrotation Xrotation
						JOINT relbow
						{
							OFFSET -0.260127 -0.014369 -0.031269
							CHANNELS 3 Zrotation Yrotation Xrotation
							JOINT rwrist
							{
								OFFSET -0.269108 0.006794 -0.006027
								CHANNELS 3 Zrotation Yrotation Xrotation
								End Site
								{
									OFFSET 0.000000 0.000000 0.000000
								}
							}
						}
					}
				}
			}
		}
	}
}
MOTION
Frames: 8
Frame Time: 0.033333
0.351757 0.536401 0.996833 -85.853360 -2.609141 97.004554 4.879909 -5.955913 -44.329541 -6.669427 10.841387 57.629085 5.723255 6.563821 -21.931223 0.000000 -0.000000 0.000000 -1.910156 0.686581 -17.808745 4.467125 9.485529 19.326072 -1.242607 -6.137116 -11.504852 0.000000 -0.000000 0.000000 6.435902 4.440082 7.485160 7.687803 -0.375381 -3.617582 0.918136 2.803874 2.750021 -0.049280 -9.900327 11.994528 1.952516 -3.093350 11.625621 -26.566006 5.956331 6.052333 -59.537989 0.258518 5.410377 15.460242 -43.386621 0.170820 9.981457 -11.749214 -18.393753 27.309603 1.985151 8.150246 48.365582 11.268087 1.729754 -21.471855 32.041250 -15.418768 3.632611 11.990924 -13.095515 
0.335688 0.535499 0.998223 -87.716549 -2.151989 96.179763 4.691755 -5.171207 -41.187682 -7.187751 8.235465 46.291707 6.087722 6.992367 -21.276390 0.000000 -0.000000 0.000000 -1.126979 0.971140 -15.556635 4.516490 11.156370 18.751266 -1.474033 -6.152591 -12.361217 0.000000 -0.000000 0.000000 5.920238 4.167619 7.541934 6.660369 -0.165631 -3.185607 0.472749 2.805079 2.907732 -0.518899 -9.209613 11.008274 2.633748 -0.764021 12.718995 -26.451108 5.816272 4.738799 -59.143897 -0.310017 6.248750 16.812933 -45.070297 -1.032559 10.995442 -11.719699 -18.315970 27.279339 2.675690 8.287739 49.419124 10.519502 3.201050 -19.780245 29.957586 -14.832510 4.753197 12.010150 -11.622030 
0.318350 0.534926 0.999562 -89.804630 -1.429221 95.782629 4.280208 -4.130789 -37.598904 -6.431139 4.781486 35.683363 6.212600 7.712677 -20.906605 0.000000 -0.000000 0.000000 -0.268397 1.200488 -14.021065 4.545525 12.089761 18.614895 -1.433718 -5.036577 -13.619184 0.000000 -0.000000 0.000000 5.419791 3.856234 6.308175 5.579092 -0.141606 -2.129955 0.235832 3.123571 2.701016 0.937967 -4.302072 11.581892 2.809456 -2.632387 12.411888 -27.289545 5.462637 4.774041 -57.935298 -1.281210 6.965217 18.491017 -46.075308 -2.635541 11.366410 -11.874579 -18.946538 27.430596 2.494768 8.677751 50.364560 10.036925 4.280503 -17.993802 28.285754 -12.128453 3.338356 12.236975 -10.960881 
0.300175 0.534250 0.999748 -91.949079 -0.299698 95.389563 4.527751 -3.111635 -33.933768 -4.650370 2.822244 26.920880 6.828088 8.804040 -20.796535 0.000000 -0.000000 0.000000 0.853682 1.686102 -12.339515 4.827931 13.151974 18.366870 -1.775354 -4.432739 -14.724146 0.000000 -0.000000 0.000000 4.893041 3.422826 5.177373 4.803248 -0.037368 -1.341542 -0.103460 3.159030 2.316376 1.429406 -1.826042 11.515436 3.190004 -1.213265 13.029680 -27.399608 5.319220 4.293237 -57.420469 -1.487673 7.527857 19.342745 -46.594805 -3.518369 11.446629 -12.285154 -19.182311 27.336584 2.561942 8.865400 51.331209 8.820419 5.844455 -16.772701 27.107268 -10.301815 3.537596 12.418308 -9.860099 
0.281095 0.533455 0.999065 -93.803441 0.859924 94.993383 5.255307 -2.564364 -30.320068 -3.133646 2.307359 20.033197 7.411248 9.707892 -20.863014 0.000000 -0.000000 0.000000 1.962470 2.382378 -10.608025 5.123810 14.092367 18.152625 -2.020954 -4.153730 -15.816934 0.000000 -0.000000 0.000000 3.967324 2.918894 3.899708 4.266758 -0.169835 -0.624527 -0.360762 3.051361 1.851403 2.127292 0.699975 11.366577 3.550085 0.508699 13.436776 -27.599633 5.199559 4.067974 -56.769023 -1.766231 7.914216 19.740034 -46.268212 -4.417186 11.051344 -12.922902 -18.909123 27.553043 2.307616 8.959164 51.648581 7.518069 7.197282 -15.597183 26.515644 -8.516354 3.871510 12.524787 -8.698865 
0.260670 0.532640 0.997289 -95.252938 2.033443 94.410525 6.127118 -2.371756 -26.613423 -2.452094 2.328934 15.034930 7.267096 10.367740 -20.077234 0.000000 -0.000000 0.000000 3.097546 3.079328 -8.397239 5.287946 14.957574 17.641356 -2.144473 -4.145455 -16.838449 0.000000 -0.000000 0.000000 2.781378 2.393543 2.856170 3.883320 -0.596752 -0.110428 -0.439870 2.748718 1.268089 2.686429 3.155192 11.201184 4.032388 3.016525 13.451371 -27.898110 4.846463 4.362452 -56.138538 -1.983375 7.840050 19.593656 -45.298113 -4.831571 11.068588 -13.300430 -18.671073 27.724936 1.791800 9.239182 51.701187 6.154897 7.873547 -14.610283 26.746018 -6.367495 4.081792 12.582943 -8.247337 
0.239027 0.531401 0.993888 -96.288497 3.277788 93.911988 6.933784 -2.435545 -23.286456 -2.523328 1.326943 12.044452 8.043995 10.240788 -17.551597 0.000000 -0.000000 0.000000 4.201180 3.863519 -5.994361 5.453107 15.715968 16.794761 -2.297623 -4.517203 -17.709951 0.000000 -0.000000 0.000000 1.561433 1.968945 1.651012 3.676947 -1.209390 0.248512 -0.517325 2.334687 1.050887 3.234144 5.777627 10.769867 4.823022 5.691569 12.858171 -28.062345 4.157354 4.860254 -55.841640 -2.532035 8.049511 18.984381 -43.168279 -4.546212 12.501175 -12.778407 -18.662138 27.648441 1.045781 9.592144 51.829019 4.688280 8.422742 -14.317242 27.780410 -4.556820 3.796029 12.496371 -9.129262 
0.216777 0.529366 0.990246 -96.586630 4.391146 93.470744 7.295026 -1.997933 -21.481084 -2.645593 -0.634623 11.827403 11.072720 10.033445 -15.464983 0.000000 -0.000000 0.000000 5.289959 4.509202 -3.489780 5.379781 16.507623 15.769554 -2.436387 -5.368985 -18.324382 0.000000 -0.000000 0.000000 0.108255 1.627083 0.751784 3.567241 -2.017446 0.196748 -0.441471 1.727294 0.990241 3.799983 8.352231 10.268885 5.551276 9.291575 11.696603 -28.343566 2.911185 5.897192 -55.522073 -3.452219 8.040344 17.813420 -40.027840 -3.777016 14.681646 -11.493551 -18.536306 27.324371 0.308456 10.043804 52.135827 3.055045 8.444940 -14.582837 29.171661 -3.391754 3.534072 12.343938 -10.613699 
